<mxfile host="app.diagrams.net" modified="2021-11-21T07:57:55.140Z" agent="5.0 (Macintosh; Intel Mac OS X 10_15_7) AppleWebKit/537.36 (KHTML, like Gecko) Chrome/96.0.4664.55 Safari/537.36" etag="ITm70n7xwpbsLgGo8oqp" version="15.8.3" type="github">
  <diagram id="uAEhmxrjSMiY-UH2wBh-" name="Page-1">
    <mxGraphModel dx="946" dy="1013" grid="1" gridSize="10" guides="1" tooltips="1" connect="1" arrows="1" fold="1" page="0" pageScale="1" pageWidth="827" pageHeight="1169" math="0" shadow="0">
      <root>
        <mxCell id="0" />
        <mxCell id="1" parent="0" />
        <mxCell id="ISmhi9uNivbO9rNuIjyK-2" value="&lt;div style=&quot;background-color: rgb(255 , 255 , 255) ; font-family: &amp;#34;menlo&amp;#34; , &amp;#34;monaco&amp;#34; , &amp;#34;courier new&amp;#34; , monospace ; line-height: 18px&quot;&gt;&lt;div style=&quot;line-height: 18px&quot;&gt;&lt;br&gt;&lt;/div&gt;&lt;/div&gt;" style="rounded=1;whiteSpace=wrap;html=1;" vertex="1" parent="1">
          <mxGeometry x="114" y="505" width="360" height="100" as="geometry" />
        </mxCell>
        <mxCell id="ISmhi9uNivbO9rNuIjyK-3" value="&lt;span style=&quot;color: rgb(149 , 56 , 0) ; font-family: &amp;#34;menlo&amp;#34; , &amp;#34;monaco&amp;#34; , &amp;#34;courier new&amp;#34; , monospace ; background-color: rgb(255 , 255 , 255)&quot;&gt;储存当前正在渲染的组件&lt;br&gt;&lt;/span&gt;&lt;span style=&quot;color: rgb(5 , 80 , 174) ; background-color: rgb(255 , 255 , 255) ; font-family: &amp;#34;menlo&amp;#34; , &amp;#34;monaco&amp;#34; , &amp;#34;courier new&amp;#34; , monospace&quot;&gt;ReactionStack = []&lt;/span&gt;" style="rounded=1;whiteSpace=wrap;html=1;" vertex="1" parent="1">
          <mxGeometry x="130" y="40" width="150" height="60" as="geometry" />
        </mxCell>
        <mxCell id="ISmhi9uNivbO9rNuIjyK-7" value="&lt;span style=&quot;color: rgb(130 , 80 , 223) ; background-color: rgb(255 , 255 , 255) ; font-family: &amp;#34;menlo&amp;#34; , &amp;#34;monaco&amp;#34; , &amp;#34;courier new&amp;#34; , monospace&quot;&gt;&lt;br&gt;&lt;/span&gt;" style="text;html=1;align=center;verticalAlign=middle;resizable=0;points=[];autosize=1;strokeColor=none;fillColor=none;" vertex="1" parent="1">
          <mxGeometry x="399" y="490" width="20" height="20" as="geometry" />
        </mxCell>
        <mxCell id="ISmhi9uNivbO9rNuIjyK-10" value="&lt;ul&gt;&lt;li&gt;&lt;span style=&quot;text-align: center&quot;&gt;提供&amp;nbsp;&lt;/span&gt;&lt;span style=&quot;text-align: center ; color: rgb(130 , 80 , 223) ; background-color: rgb(255 , 255 , 255) ; font-family: &amp;#34;menlo&amp;#34; , &amp;#34;monaco&amp;#34; , &amp;#34;courier new&amp;#34; , monospace&quot;&gt;forceUpdate&lt;/span&gt;&lt;span style=&quot;text-align: center&quot;&gt;&amp;nbsp;方法用于更新组建提供&lt;/span&gt;&lt;br&gt;&lt;/li&gt;&lt;li&gt;&lt;span style=&quot;text-align: center&quot;&gt;在组件渲染时，读取&amp;nbsp;&lt;/span&gt;&lt;span style=&quot;text-align: center ; color: rgb(130 , 80 , 223) ; font-family: &amp;#34;menlo&amp;#34; , &amp;#34;monaco&amp;#34; , &amp;#34;courier new&amp;#34; , monospace ; background-color: rgb(255 , 255 , 255)&quot;&gt;form&lt;/span&gt;&lt;span style=&quot;text-align: center&quot;&gt;&amp;nbsp;的&amp;nbsp;&lt;/span&gt;&lt;span style=&quot;text-align: center ; color: rgb(130 , 80 , 223) ; font-family: &amp;#34;menlo&amp;#34; , &amp;#34;monaco&amp;#34; , &amp;#34;courier new&amp;#34; , monospace ; background-color: rgb(255 , 255 , 255)&quot;&gt;values&lt;/span&gt;&lt;br style=&quot;text-align: center&quot;&gt;&lt;span style=&quot;text-align: center&quot;&gt;&amp;nbsp;属性时，绑定数据和组件的关系&lt;/span&gt;&amp;nbsp;&lt;/li&gt;&lt;/ul&gt;" style="text;strokeColor=none;fillColor=none;html=1;whiteSpace=wrap;verticalAlign=middle;overflow=hidden;" vertex="1" parent="1">
          <mxGeometry x="149" y="525" width="290" height="80" as="geometry" />
        </mxCell>
        <mxCell id="ISmhi9uNivbO9rNuIjyK-17" value="&lt;div style=&quot;font-family: &amp;#34;menlo&amp;#34; , &amp;#34;monaco&amp;#34; , &amp;#34;courier new&amp;#34; , monospace ; line-height: 18px&quot;&gt;&lt;font color=&quot;#953800&quot;&gt;高阶组件&amp;nbsp;&lt;/font&gt;&lt;span style=&quot;color: rgb(130 , 80 , 223)&quot;&gt;observer&lt;/span&gt;&lt;/div&gt;" style="text;html=1;strokeColor=none;fillColor=none;align=center;verticalAlign=middle;whiteSpace=wrap;rounded=0;" vertex="1" parent="1">
          <mxGeometry x="214" y="505" width="160" height="30" as="geometry" />
        </mxCell>
        <mxCell id="ISmhi9uNivbO9rNuIjyK-19" value="" style="rounded=1;whiteSpace=wrap;html=1;" vertex="1" parent="1">
          <mxGeometry x="114" y="635" width="365" height="90" as="geometry" />
        </mxCell>
        <mxCell id="ISmhi9uNivbO9rNuIjyK-20" value="&lt;span style=&quot;color: rgb(149 , 56 , 0) ; font-family: &amp;#34;menlo&amp;#34; , &amp;#34;monaco&amp;#34; , &amp;#34;courier new&amp;#34; , monospace&quot;&gt;高阶组件&amp;nbsp;&lt;/span&gt;&lt;span style=&quot;color: rgb(5 , 80 , 174) ; background-color: rgb(255 , 255 , 255) ; font-family: &amp;#34;menlo&amp;#34; , &amp;#34;monaco&amp;#34; , &amp;#34;courier new&amp;#34; , monospace&quot;&gt;Field&lt;/span&gt;&lt;span style=&quot;color: rgb(149 , 56 , 0) ; font-family: &amp;#34;menlo&amp;#34; , &amp;#34;monaco&amp;#34; , &amp;#34;courier new&amp;#34; , monospace&quot;&gt;&lt;br&gt;&lt;/span&gt;" style="text;html=1;strokeColor=none;fillColor=none;align=center;verticalAlign=middle;whiteSpace=wrap;rounded=0;" vertex="1" parent="1">
          <mxGeometry x="195" y="645" width="200" height="30" as="geometry" />
        </mxCell>
        <mxCell id="ISmhi9uNivbO9rNuIjyK-21" value="&lt;ul&gt;&lt;li&gt;将&lt;span style=&quot;color: rgb(130 , 80 , 223) ; font-family: &amp;#34;menlo&amp;#34; , &amp;#34;monaco&amp;#34; , &amp;#34;courier new&amp;#34; , monospace ; text-align: center ; background-color: rgb(255 , 255 , 255)&quot;&gt;&amp;nbsp;decorator&lt;/span&gt;&amp;nbsp;包裹&amp;nbsp;&lt;span style=&quot;color: rgb(130 , 80 , 223) ; font-family: &amp;#34;menlo&amp;#34; , &amp;#34;monaco&amp;#34; , &amp;#34;courier new&amp;#34; , monospace ; text-align: center ; background-color: rgb(255 , 255 , 255)&quot;&gt;component&lt;/span&gt;&amp;nbsp;进行渲染&lt;/li&gt;&lt;li&gt;创建&lt;span style=&quot;color: rgb(130 , 80 , 223) ; font-family: &amp;#34;menlo&amp;#34; , &amp;#34;monaco&amp;#34; , &amp;#34;courier new&amp;#34; , monospace ; text-align: center ; background-color: rgb(255 , 255 , 255)&quot;&gt;field&lt;/span&gt;&amp;nbsp;数据模型，传入&lt;span style=&quot;color: rgb(130 , 80 , 223) ; font-family: &amp;#34;menlo&amp;#34; , &amp;#34;monaco&amp;#34; , &amp;#34;courier new&amp;#34; , monospace ; text-align: center ; background-color: rgb(255 , 255 , 255)&quot;&gt;&amp;nbsp;component&lt;/span&gt;&amp;nbsp;中&lt;/li&gt;&lt;/ul&gt;" style="text;strokeColor=none;fillColor=none;html=1;whiteSpace=wrap;verticalAlign=middle;overflow=hidden;" vertex="1" parent="1">
          <mxGeometry x="150" y="655" width="290" height="70" as="geometry" />
        </mxCell>
        <mxCell id="ISmhi9uNivbO9rNuIjyK-22" value="" style="rounded=1;whiteSpace=wrap;html=1;" vertex="1" parent="1">
          <mxGeometry x="114" y="785" width="365" height="90" as="geometry" />
        </mxCell>
        <mxCell id="ISmhi9uNivbO9rNuIjyK-23" value="&lt;font color=&quot;#953800&quot; style=&quot;font-family: &amp;#34;menlo&amp;#34; , &amp;#34;monaco&amp;#34; , &amp;#34;courier new&amp;#34; , monospace&quot;&gt;数据模型&amp;nbsp;&lt;/font&gt;&lt;span style=&quot;font-family: &amp;#34;menlo&amp;#34; , &amp;#34;monaco&amp;#34; , &amp;#34;courier new&amp;#34; , monospace ; color: rgb(130 , 80 , 223)&quot;&gt;field&lt;/span&gt;" style="text;html=1;strokeColor=none;fillColor=none;align=center;verticalAlign=middle;whiteSpace=wrap;rounded=0;" vertex="1" parent="1">
          <mxGeometry x="219" y="785" width="150" height="30" as="geometry" />
        </mxCell>
        <mxCell id="ISmhi9uNivbO9rNuIjyK-24" value="" style="rounded=1;whiteSpace=wrap;html=1;" vertex="1" parent="1">
          <mxGeometry x="114" y="230" width="120" height="60" as="geometry" />
        </mxCell>
        <mxCell id="ISmhi9uNivbO9rNuIjyK-25" value="全局数据" style="text;html=1;strokeColor=none;fillColor=none;align=center;verticalAlign=middle;whiteSpace=wrap;rounded=0;fontSize=16;" vertex="1" parent="1">
          <mxGeometry x="10" y="55" width="100" height="30" as="geometry" />
        </mxCell>
        <mxCell id="ISmhi9uNivbO9rNuIjyK-26" value="&lt;span style=&quot;color: rgb(149 , 56 , 0) ; font-family: &amp;#34;menlo&amp;#34; , &amp;#34;monaco&amp;#34; , &amp;#34;courier new&amp;#34; , monospace ; background-color: rgb(255 , 255 , 255)&quot;&gt;储存数据和组件的关系&lt;br&gt;&lt;/span&gt;&lt;span style=&quot;color: rgb(5 , 80 , 174) ; background-color: rgb(255 , 255 , 255) ; font-family: &amp;#34;menlo&amp;#34; , &amp;#34;monaco&amp;#34; , &amp;#34;courier new&amp;#34; , monospace&quot;&gt;RawReactionsMap =&amp;nbsp;&lt;/span&gt;&lt;span style=&quot;color: rgb(5 , 80 , 174) ; font-family: &amp;#34;menlo&amp;#34; , &amp;#34;monaco&amp;#34; , &amp;#34;courier new&amp;#34; , monospace ; background-color: rgb(255 , 255 , 255)&quot;&gt;new&lt;/span&gt;&lt;span style=&quot;color: rgb(149 , 56 , 0) ; font-family: &amp;#34;menlo&amp;#34; , &amp;#34;monaco&amp;#34; , &amp;#34;courier new&amp;#34; , monospace ; background-color: rgb(255 , 255 , 255)&quot;&gt;&amp;nbsp;&lt;/span&gt;&lt;span style=&quot;color: rgb(5 , 80 , 174) ; background-color: rgb(255 , 255 , 255) ; font-family: &amp;#34;menlo&amp;#34; , &amp;#34;monaco&amp;#34; , &amp;#34;courier new&amp;#34; , monospace&quot;&gt;WeakMap&lt;/span&gt;&lt;span style=&quot;background-color: rgb(255 , 255 , 255) ; color: rgb(149 , 56 , 0) ; font-family: &amp;#34;menlo&amp;#34; , &amp;#34;monaco&amp;#34; , &amp;#34;courier new&amp;#34; , monospace&quot;&gt;()&lt;/span&gt;" style="rounded=1;whiteSpace=wrap;html=1;" vertex="1" parent="1">
          <mxGeometry x="320" y="40" width="240" height="60" as="geometry" />
        </mxCell>
        <mxCell id="ISmhi9uNivbO9rNuIjyK-28" value="&lt;span style=&quot;color: rgb(149 , 56 , 0) ; font-family: &amp;#34;menlo&amp;#34; , &amp;#34;monaco&amp;#34; , &amp;#34;courier new&amp;#34; , monospace ; background-color: rgb(255 , 255 , 255)&quot;&gt;Form 数据模型&lt;br&gt;&lt;/span&gt;&lt;span style=&quot;color: rgb(5 , 80 , 174) ; background-color: rgb(255 , 255 , 255) ; font-family: &amp;#34;menlo&amp;#34; , &amp;#34;monaco&amp;#34; , &amp;#34;courier new&amp;#34; , monospace&quot;&gt;form =&amp;nbsp;&lt;/span&gt;&lt;span style=&quot;color: rgb(5 , 80 , 174) ; font-family: &amp;#34;menlo&amp;#34; , &amp;#34;monaco&amp;#34; , &amp;#34;courier new&amp;#34; , monospace ; background-color: rgb(255 , 255 , 255)&quot;&gt;new&lt;/span&gt;&lt;span style=&quot;color: rgb(149 , 56 , 0) ; font-family: &amp;#34;menlo&amp;#34; , &amp;#34;monaco&amp;#34; , &amp;#34;courier new&amp;#34; , monospace ; background-color: rgb(255 , 255 , 255)&quot;&gt;&amp;nbsp;&lt;/span&gt;&lt;span style=&quot;color: rgb(5 , 80 , 174) ; background-color: rgb(255 , 255 , 255) ; font-family: &amp;#34;menlo&amp;#34; , &amp;#34;monaco&amp;#34; , &amp;#34;courier new&amp;#34; , monospace&quot;&gt;Form&lt;/span&gt;&lt;span style=&quot;background-color: rgb(255 , 255 , 255) ; color: rgb(149 , 56 , 0) ; font-family: &amp;#34;menlo&amp;#34; , &amp;#34;monaco&amp;#34; , &amp;#34;courier new&amp;#34; , monospace&quot; class=&quot;&quot;&gt;()&lt;/span&gt;" style="rounded=1;whiteSpace=wrap;html=1;" vertex="1" parent="1">
          <mxGeometry x="600" y="40" width="160" height="60" as="geometry" />
        </mxCell>
        <mxCell id="ISmhi9uNivbO9rNuIjyK-29" value="&lt;span style=&quot;color: rgb(149 , 56 , 0) ; font-family: &amp;#34;menlo&amp;#34; , &amp;#34;monaco&amp;#34; , &amp;#34;courier new&amp;#34; , monospace ; background-color: rgb(255 , 255 , 255)&quot;&gt;Field 数据模型&lt;br&gt;&lt;/span&gt;&lt;span style=&quot;color: rgb(5 , 80 , 174) ; background-color: rgb(255 , 255 , 255) ; font-family: &amp;#34;menlo&amp;#34; , &amp;#34;monaco&amp;#34; , &amp;#34;courier new&amp;#34; , monospace&quot;&gt;field =&amp;nbsp;&lt;/span&gt;&lt;span style=&quot;color: rgb(5 , 80 , 174) ; font-family: &amp;#34;menlo&amp;#34; , &amp;#34;monaco&amp;#34; , &amp;#34;courier new&amp;#34; , monospace ; background-color: rgb(255 , 255 , 255)&quot;&gt;new&lt;/span&gt;&lt;span style=&quot;font-family: &amp;#34;menlo&amp;#34; , &amp;#34;monaco&amp;#34; , &amp;#34;courier new&amp;#34; , monospace ; background-color: rgb(255 , 255 , 255)&quot;&gt;&lt;font color=&quot;#953800&quot;&gt;&amp;nbsp;&lt;/font&gt;&lt;/span&gt;&lt;span style=&quot;background-color: rgb(255 , 255 , 255) ; font-family: &amp;#34;menlo&amp;#34; , &amp;#34;monaco&amp;#34; , &amp;#34;courier new&amp;#34; , monospace&quot;&gt;&lt;font color=&quot;#0550ae&quot;&gt;Field&lt;/font&gt;&lt;/span&gt;&lt;span style=&quot;background-color: rgb(255 , 255 , 255) ; color: rgb(149 , 56 , 0) ; font-family: &amp;#34;menlo&amp;#34; , &amp;#34;monaco&amp;#34; , &amp;#34;courier new&amp;#34; , monospace&quot;&gt;()&lt;/span&gt;" style="rounded=1;whiteSpace=wrap;html=1;" vertex="1" parent="1">
          <mxGeometry x="940" y="40" width="160" height="60" as="geometry" />
        </mxCell>
        <mxCell id="ISmhi9uNivbO9rNuIjyK-36" value="" style="shape=waypoint;size=6;pointerEvents=1;points=[];fillColor=rgba(255, 255, 255, 1);resizable=0;rotatable=0;perimeter=centerPerimeter;snapToPoint=1;rounded=1;" vertex="1" parent="1">
          <mxGeometry x="660" y="190" width="40" height="40" as="geometry" />
        </mxCell>
        <mxCell id="ISmhi9uNivbO9rNuIjyK-41" value="" style="edgeStyle=orthogonalEdgeStyle;rounded=0;orthogonalLoop=1;jettySize=auto;html=1;fontFamily=Helvetica;fontSize=12;fontColor=#9C97A3;" edge="1" parent="1" source="ISmhi9uNivbO9rNuIjyK-40" target="ISmhi9uNivbO9rNuIjyK-28">
          <mxGeometry relative="1" as="geometry" />
        </mxCell>
        <mxCell id="ISmhi9uNivbO9rNuIjyK-40" value="&lt;p style=&quot;margin: 0px ; margin-top: 4px ; text-align: center&quot;&gt;&lt;b&gt;Form&lt;/b&gt;&lt;/p&gt;&lt;hr size=&quot;1&quot;&gt;&lt;p style=&quot;margin: 0px ; margin-left: 4px&quot;&gt;+ field:&amp;nbsp;&lt;span style=&quot;color: rgb(5 , 80 , 174) ; font-family: &amp;#34;menlo&amp;#34; , &amp;#34;monaco&amp;#34; , &amp;#34;courier new&amp;#34; , monospace ; text-align: center ; background-color: rgb(255 , 255 , 255)&quot;&gt;values &lt;/span&gt;&lt;span style=&quot;font-family: &amp;#34;menlo&amp;#34; , &amp;#34;monaco&amp;#34; , &amp;#34;courier new&amp;#34; , monospace ; text-align: center ; background-color: rgb(255 , 255 , 255)&quot;&gt;&lt;font color=&quot;#9c97a3&quot;&gt;// 所有表单字段值&lt;/font&gt;&lt;/span&gt;&lt;/p&gt;&lt;p style=&quot;margin: 0px ; margin-left: 4px&quot;&gt;+ field:&amp;nbsp;&lt;span style=&quot;color: rgb(5 , 80 , 174) ; font-family: &amp;#34;menlo&amp;#34; , &amp;#34;monaco&amp;#34; , &amp;#34;courier new&amp;#34; , monospace ; text-align: center ; background-color: rgb(255 , 255 , 255)&quot;&gt;fields &lt;/span&gt;&lt;span style=&quot;font-family: &amp;#34;menlo&amp;#34; , &amp;#34;monaco&amp;#34; , &amp;#34;courier new&amp;#34; , monospace ; text-align: center ; background-color: rgb(255 , 255 , 255)&quot;&gt;&lt;font color=&quot;#9c97a3&quot;&gt;// 所有表单字段组件数据模型&lt;/font&gt;&lt;/span&gt;&lt;/p&gt;&lt;p style=&quot;margin: 0px ; margin-left: 4px&quot;&gt;&lt;span&gt;...&lt;/span&gt;&lt;/p&gt;" style="verticalAlign=top;align=left;overflow=fill;fontSize=12;fontFamily=Helvetica;html=1;" vertex="1" parent="1">
          <mxGeometry x="540" y="-100" width="280" height="80" as="geometry" />
        </mxCell>
        <mxCell id="ISmhi9uNivbO9rNuIjyK-46" value="&lt;p style=&quot;margin: 0px ; margin-top: 4px ; text-align: center&quot;&gt;&lt;b&gt;Form&lt;/b&gt;&lt;/p&gt;&lt;hr size=&quot;1&quot;&gt;&lt;p style=&quot;margin: 0px ; margin-left: 4px&quot;&gt;+ field:&amp;nbsp;&lt;span style=&quot;color: rgb(5 , 80 , 174) ; font-family: &amp;#34;menlo&amp;#34; , &amp;#34;monaco&amp;#34; , &amp;#34;courier new&amp;#34; , monospace ; text-align: center ; background-color: rgb(255 , 255 , 255)&quot;&gt;values &lt;/span&gt;&lt;span style=&quot;font-family: &amp;#34;menlo&amp;#34; , &amp;#34;monaco&amp;#34; , &amp;#34;courier new&amp;#34; , monospace ; text-align: center ; background-color: rgb(255 , 255 , 255)&quot;&gt;&lt;font color=&quot;#9c97a3&quot;&gt;// 所有表单字段值&lt;/font&gt;&lt;/span&gt;&lt;/p&gt;&lt;p style=&quot;margin: 0px ; margin-left: 4px&quot;&gt;+ field:&amp;nbsp;&lt;span style=&quot;color: rgb(5 , 80 , 174) ; font-family: &amp;#34;menlo&amp;#34; , &amp;#34;monaco&amp;#34; , &amp;#34;courier new&amp;#34; , monospace ; text-align: center ; background-color: rgb(255 , 255 , 255)&quot;&gt;fields &lt;/span&gt;&lt;span style=&quot;font-family: &amp;#34;menlo&amp;#34; , &amp;#34;monaco&amp;#34; , &amp;#34;courier new&amp;#34; , monospace ; text-align: center ; background-color: rgb(255 , 255 , 255)&quot;&gt;&lt;font color=&quot;#9c97a3&quot;&gt;// 所有表单字段组件数据模型&lt;/font&gt;&lt;/span&gt;&lt;/p&gt;&lt;p style=&quot;margin: 0px ; margin-left: 4px&quot;&gt;&lt;span&gt;...&lt;/span&gt;&lt;/p&gt;" style="verticalAlign=top;align=left;overflow=fill;fontSize=12;fontFamily=Helvetica;html=1;" vertex="1" parent="1">
          <mxGeometry x="880" y="-100" width="280" height="80" as="geometry" />
        </mxCell>
      </root>
    </mxGraphModel>
  </diagram>
</mxfile>
